<mxfile host="app.diagrams.net" modified="2023-05-18T17:13:32.836Z" agent="Mozilla/5.0 (Windows NT 10.0; Win64; x64) AppleWebKit/537.36 (KHTML, like Gecko) Chrome/113.0.0.0 Safari/537.36" etag="1J9L5yYLej4R52Ns34y1" version="21.3.2" type="device">
  <diagram id="ZvkosvUA7FiJb7GwPo3D" name="Page-1">
    <mxGraphModel dx="1635" dy="1126" grid="1" gridSize="10" guides="1" tooltips="1" connect="1" arrows="1" fold="1" page="0" pageScale="1" pageWidth="850" pageHeight="1100" math="0" shadow="0">
      <root>
        <mxCell id="0" />
        <mxCell id="1" parent="0" />
        <mxCell id="3hfV1sajOuwn8uN8BBhG-42" style="edgeStyle=orthogonalEdgeStyle;rounded=0;orthogonalLoop=1;jettySize=auto;html=1;exitX=1;exitY=0;exitDx=0;exitDy=0;entryX=0.5;entryY=1;entryDx=0;entryDy=0;" parent="1" source="3hfV1sajOuwn8uN8BBhG-1" target="3hfV1sajOuwn8uN8BBhG-41" edge="1">
          <mxGeometry relative="1" as="geometry">
            <Array as="points">
              <mxPoint x="482" y="70" />
              <mxPoint x="690" y="70" />
            </Array>
          </mxGeometry>
        </mxCell>
        <mxCell id="3hfV1sajOuwn8uN8BBhG-43" style="edgeStyle=orthogonalEdgeStyle;rounded=0;orthogonalLoop=1;jettySize=auto;html=1;exitX=0;exitY=0.5;exitDx=0;exitDy=0;entryX=0.5;entryY=1;entryDx=0;entryDy=0;" parent="1" source="3hfV1sajOuwn8uN8BBhG-1" target="3hfV1sajOuwn8uN8BBhG-40" edge="1">
          <mxGeometry relative="1" as="geometry" />
        </mxCell>
        <mxCell id="3hfV1sajOuwn8uN8BBhG-1" value="person" style="ellipse;whiteSpace=wrap;html=1;fillColor=#fff2cc;strokeColor=#d6b656;" parent="1" vertex="1">
          <mxGeometry x="380" y="30" width="120" height="80" as="geometry" />
        </mxCell>
        <mxCell id="3hfV1sajOuwn8uN8BBhG-3" value="disease" style="ellipse;whiteSpace=wrap;html=1;fillColor=#d5e8d4;strokeColor=#82b366;" parent="1" vertex="1">
          <mxGeometry x="220" y="440" width="120" height="80" as="geometry" />
        </mxCell>
        <mxCell id="3hfV1sajOuwn8uN8BBhG-18" value="subclassof" style="edgeStyle=orthogonalEdgeStyle;rounded=0;orthogonalLoop=1;jettySize=auto;html=1;exitX=0;exitY=0.5;exitDx=0;exitDy=0;entryX=1;entryY=1;entryDx=0;entryDy=0;" parent="1" source="3hfV1sajOuwn8uN8BBhG-4" edge="1" target="3hfV1sajOuwn8uN8BBhG-1">
          <mxGeometry relative="1" as="geometry">
            <mxPoint x="440" y="220" as="targetPoint" />
          </mxGeometry>
        </mxCell>
        <mxCell id="3hfV1sajOuwn8uN8BBhG-44" style="edgeStyle=orthogonalEdgeStyle;rounded=0;orthogonalLoop=1;jettySize=auto;html=1;exitX=0;exitY=0;exitDx=0;exitDy=0;entryX=1;entryY=0;entryDx=0;entryDy=0;" parent="1" source="3hfV1sajOuwn8uN8BBhG-4" target="3hfV1sajOuwn8uN8BBhG-5" edge="1">
          <mxGeometry relative="1" as="geometry" />
        </mxCell>
        <mxCell id="3hfV1sajOuwn8uN8BBhG-45" value="Help" style="edgeLabel;html=1;align=center;verticalAlign=middle;resizable=0;points=[];" parent="3hfV1sajOuwn8uN8BBhG-44" vertex="1" connectable="0">
          <mxGeometry x="0.3774" relative="1" as="geometry">
            <mxPoint as="offset" />
          </mxGeometry>
        </mxCell>
        <mxCell id="3hfV1sajOuwn8uN8BBhG-4" value="nurse" style="ellipse;whiteSpace=wrap;html=1;fillColor=#fff2cc;strokeColor=#d6b656;" parent="1" vertex="1">
          <mxGeometry x="640" y="180" width="120" height="80" as="geometry" />
        </mxCell>
        <mxCell id="3hfV1sajOuwn8uN8BBhG-17" value="subclassof" style="edgeStyle=orthogonalEdgeStyle;rounded=0;orthogonalLoop=1;jettySize=auto;html=1;exitX=1;exitY=0.5;exitDx=0;exitDy=0;entryX=0;entryY=1;entryDx=0;entryDy=0;" parent="1" source="3hfV1sajOuwn8uN8BBhG-5" edge="1" target="3hfV1sajOuwn8uN8BBhG-1">
          <mxGeometry relative="1" as="geometry">
            <mxPoint x="440" y="220" as="targetPoint" />
          </mxGeometry>
        </mxCell>
        <mxCell id="3hfV1sajOuwn8uN8BBhG-5" value="doctor" style="ellipse;whiteSpace=wrap;html=1;fillColor=#fff2cc;strokeColor=#d6b656;" parent="1" vertex="1">
          <mxGeometry x="110" y="180" width="120" height="80" as="geometry" />
        </mxCell>
        <mxCell id="3hfV1sajOuwn8uN8BBhG-16" value="subclassof" style="edgeStyle=orthogonalEdgeStyle;rounded=0;orthogonalLoop=1;jettySize=auto;html=1;entryX=0.5;entryY=1;entryDx=0;entryDy=0;" parent="1" source="3hfV1sajOuwn8uN8BBhG-6" target="3hfV1sajOuwn8uN8BBhG-1" edge="1">
          <mxGeometry x="0.5238" relative="1" as="geometry">
            <mxPoint x="440" y="120" as="targetPoint" />
            <Array as="points">
              <mxPoint x="440" y="170" />
              <mxPoint x="440" y="170" />
            </Array>
            <mxPoint as="offset" />
          </mxGeometry>
        </mxCell>
        <mxCell id="3hfV1sajOuwn8uN8BBhG-36" style="edgeStyle=orthogonalEdgeStyle;rounded=0;orthogonalLoop=1;jettySize=auto;html=1;exitX=1;exitY=1;exitDx=0;exitDy=0;entryX=0.5;entryY=0;entryDx=0;entryDy=0;" parent="1" source="3hfV1sajOuwn8uN8BBhG-6" target="3hfV1sajOuwn8uN8BBhG-7" edge="1">
          <mxGeometry relative="1" as="geometry" />
        </mxCell>
        <mxCell id="3hfV1sajOuwn8uN8BBhG-37" value="sitting in" style="edgeLabel;html=1;align=center;verticalAlign=middle;resizable=0;points=[];" parent="3hfV1sajOuwn8uN8BBhG-36" vertex="1" connectable="0">
          <mxGeometry x="0.0278" y="-2" relative="1" as="geometry">
            <mxPoint as="offset" />
          </mxGeometry>
        </mxCell>
        <mxCell id="3hfV1sajOuwn8uN8BBhG-38" style="edgeStyle=orthogonalEdgeStyle;rounded=0;orthogonalLoop=1;jettySize=auto;html=1;exitX=0;exitY=1;exitDx=0;exitDy=0;" parent="1" source="3hfV1sajOuwn8uN8BBhG-6" target="3hfV1sajOuwn8uN8BBhG-3" edge="1">
          <mxGeometry relative="1" as="geometry" />
        </mxCell>
        <mxCell id="3hfV1sajOuwn8uN8BBhG-6" value="patient" style="ellipse;whiteSpace=wrap;html=1;fillColor=#fff2cc;strokeColor=#d6b656;" parent="1" vertex="1">
          <mxGeometry x="380" y="320" width="120" height="80" as="geometry" />
        </mxCell>
        <mxCell id="3hfV1sajOuwn8uN8BBhG-7" value="hospital rooms" style="ellipse;whiteSpace=wrap;html=1;fillColor=#d5e8d4;strokeColor=#82b366;" parent="1" vertex="1">
          <mxGeometry x="550" y="440" width="120" height="80" as="geometry" />
        </mxCell>
        <mxCell id="3hfV1sajOuwn8uN8BBhG-8" value="surgery operations" style="ellipse;whiteSpace=wrap;html=1;fillColor=#d5e8d4;strokeColor=#82b366;" parent="1" vertex="1">
          <mxGeometry x="-68" y="348" width="120" height="80" as="geometry" />
        </mxCell>
        <mxCell id="3hfV1sajOuwn8uN8BBhG-9" value="specialize" style="ellipse;whiteSpace=wrap;html=1;fillColor=#d5e8d4;strokeColor=#82b366;" parent="1" vertex="1">
          <mxGeometry x="-68" y="44" width="120" height="80" as="geometry" />
        </mxCell>
        <mxCell id="3hfV1sajOuwn8uN8BBhG-19" value="" style="endArrow=classic;html=1;rounded=0;entryX=1;entryY=0.5;entryDx=0;entryDy=0;" parent="1" source="3hfV1sajOuwn8uN8BBhG-4" target="3hfV1sajOuwn8uN8BBhG-6" edge="1">
          <mxGeometry relative="1" as="geometry">
            <mxPoint x="370" y="320" as="sourcePoint" />
            <mxPoint x="700" y="360" as="targetPoint" />
            <Array as="points">
              <mxPoint x="700" y="360" />
            </Array>
          </mxGeometry>
        </mxCell>
        <mxCell id="3hfV1sajOuwn8uN8BBhG-20" value="takecare" style="edgeLabel;resizable=0;html=1;align=center;verticalAlign=middle;" parent="3hfV1sajOuwn8uN8BBhG-19" connectable="0" vertex="1">
          <mxGeometry relative="1" as="geometry">
            <mxPoint x="11" as="offset" />
          </mxGeometry>
        </mxCell>
        <mxCell id="3hfV1sajOuwn8uN8BBhG-24" value="" style="endArrow=classic;html=1;rounded=0;exitX=0.442;exitY=1.013;exitDx=0;exitDy=0;exitPerimeter=0;entryX=0;entryY=0.5;entryDx=0;entryDy=0;" parent="1" source="3hfV1sajOuwn8uN8BBhG-5" target="3hfV1sajOuwn8uN8BBhG-6" edge="1">
          <mxGeometry relative="1" as="geometry">
            <mxPoint x="340" y="320" as="sourcePoint" />
            <mxPoint x="500" y="320" as="targetPoint" />
            <Array as="points">
              <mxPoint x="163" y="360" />
            </Array>
          </mxGeometry>
        </mxCell>
        <mxCell id="3hfV1sajOuwn8uN8BBhG-25" value="diagnosis&lt;br&gt;&amp;amp;&amp;amp;&lt;br&gt;treat" style="edgeLabel;resizable=0;html=1;align=center;verticalAlign=middle;" parent="3hfV1sajOuwn8uN8BBhG-24" connectable="0" vertex="1">
          <mxGeometry relative="1" as="geometry" />
        </mxCell>
        <mxCell id="3hfV1sajOuwn8uN8BBhG-28" value="" style="endArrow=classic;html=1;rounded=0;exitX=0;exitY=1;exitDx=0;exitDy=0;entryX=1;entryY=0;entryDx=0;entryDy=0;" parent="1" source="3hfV1sajOuwn8uN8BBhG-5" target="3hfV1sajOuwn8uN8BBhG-8" edge="1">
          <mxGeometry relative="1" as="geometry">
            <mxPoint x="340" y="310" as="sourcePoint" />
            <mxPoint x="500" y="310" as="targetPoint" />
          </mxGeometry>
        </mxCell>
        <mxCell id="3hfV1sajOuwn8uN8BBhG-29" value="Do" style="edgeLabel;resizable=0;html=1;align=center;verticalAlign=middle;" parent="3hfV1sajOuwn8uN8BBhG-28" connectable="0" vertex="1">
          <mxGeometry relative="1" as="geometry" />
        </mxCell>
        <mxCell id="3hfV1sajOuwn8uN8BBhG-32" value="" style="endArrow=classic;html=1;rounded=0;exitX=0;exitY=0;exitDx=0;exitDy=0;entryX=1;entryY=1;entryDx=0;entryDy=0;" parent="1" source="3hfV1sajOuwn8uN8BBhG-5" target="3hfV1sajOuwn8uN8BBhG-9" edge="1">
          <mxGeometry relative="1" as="geometry">
            <mxPoint x="110" y="110" as="sourcePoint" />
            <mxPoint x="270" y="110" as="targetPoint" />
          </mxGeometry>
        </mxCell>
        <mxCell id="3hfV1sajOuwn8uN8BBhG-40" value="name" style="ellipse;whiteSpace=wrap;html=1;fillColor=#d5e8d4;strokeColor=#82b366;" parent="1" vertex="1">
          <mxGeometry x="110" y="-160" width="120" height="80" as="geometry" />
        </mxCell>
        <mxCell id="3hfV1sajOuwn8uN8BBhG-41" value="age&amp;nbsp;" style="ellipse;whiteSpace=wrap;html=1;fillColor=#d5e8d4;strokeColor=#82b366;" parent="1" vertex="1">
          <mxGeometry x="630" y="-160" width="120" height="80" as="geometry" />
        </mxCell>
        <mxCell id="3hfV1sajOuwn8uN8BBhG-47" value="&lt;font style=&quot;font-size: 24px&quot;&gt;classes :&lt;br&gt;&lt;ul&gt;&lt;li&gt;&lt;font style=&quot;font-size: 24px&quot;&gt;person&lt;/font&gt;&lt;/li&gt;&lt;li&gt;&lt;font style=&quot;font-size: 24px&quot;&gt;Doctor&lt;/font&gt;&lt;/li&gt;&lt;li&gt;Nurse&lt;/li&gt;&lt;li&gt;&lt;font style=&quot;font-size: 24px&quot;&gt;&amp;nbsp; Patient&amp;nbsp;&lt;/font&gt;&lt;/li&gt;&lt;/ul&gt;&lt;/font&gt;" style="text;html=1;align=center;verticalAlign=middle;resizable=0;points=[];autosize=1;strokeColor=none;fillColor=none;" parent="1" vertex="1">
          <mxGeometry x="-145" y="565" width="150" height="130" as="geometry" />
        </mxCell>
        <mxCell id="3hfV1sajOuwn8uN8BBhG-48" value="Data Properties :&lt;br&gt;&lt;ul&gt;&lt;li&gt;person : name, age&lt;/li&gt;&lt;li&gt;doctor : specialize&lt;/li&gt;&lt;li&gt;patient : disease&lt;/li&gt;&lt;/ul&gt;" style="text;html=1;align=center;verticalAlign=middle;resizable=0;points=[];autosize=1;strokeColor=none;fillColor=none;fontSize=24;" parent="1" vertex="1">
          <mxGeometry x="-200" y="740" width="260" height="170" as="geometry" />
        </mxCell>
        <mxCell id="3hfV1sajOuwn8uN8BBhG-49" value="object properties :&lt;br&gt;&lt;ul&gt;&lt;li&gt;help&lt;/li&gt;&lt;li&gt;do&lt;/li&gt;&lt;li&gt;sitting in&amp;nbsp;&lt;/li&gt;&lt;li&gt;diagnose&amp;nbsp;&lt;/li&gt;&lt;li&gt;treat&amp;nbsp;&lt;/li&gt;&lt;li&gt;takecareof&lt;/li&gt;&lt;/ul&gt;" style="text;html=1;align=center;verticalAlign=middle;resizable=0;points=[];autosize=1;strokeColor=none;fillColor=none;fontSize=24;" parent="1" vertex="1">
          <mxGeometry x="-175" y="925" width="210" height="260" as="geometry" />
        </mxCell>
      </root>
    </mxGraphModel>
  </diagram>
</mxfile>
